Coordinates
version=1
nRows=26
nColumns=18
inDegrees=yes

Units are S.I. units (second, meters, Newtons, ...)
If the header above contains a line with 'inDegrees', this indicates whether rotational values are in degrees (yes) or radians (no).

endheader
time	ground_thorax_rot_x	ground_thorax_rot_y	ground_thorax_rot_z	ground_thorax_tx	ground_thorax_ty	ground_thorax_tz	clav_prot	clav_elev	scapula_abduction	scapula_elevation	scapula_upward_rot	scapula_winging	plane_elv	shoulder_elv	axial_rot	elbow_flexion	pro_sup
      3.46000000	      1.12235123	     -8.45421424	    -11.64743915	      0.00000000	      0.00000000	      0.00000000	    -18.70421279	     -4.68692797	     -5.64296483	     -4.11432045	     13.02516924	      5.11765081	    -15.41918823	     15.33421659	     37.50047487	      0.00000000	     34.32000000
      3.47000000	      1.33404570	     -8.29053562	    -11.45909824	      0.00000000	      0.00000000	      0.00000000	    -18.79058399	     -4.50537998	     -5.93591845	     -3.93458193	     12.85377647	      5.11784416	    -14.80981446	     15.99576947	     34.19766831	      0.00000000	     34.32000000
      3.48000000	      1.27357711	     -8.47673014	    -11.46131830	      0.00000000	      0.00000000	      0.00000000	    -18.67055581	     -4.44407731	     -5.31470042	     -4.07349360	     13.58575973	      4.89427012	    -18.37377770	     14.43615824	     46.90227274	      0.00000000	     34.32000000
      3.49000000	      1.24316952	     -8.43803135	    -11.51175712	      0.00000000	      0.00000000	      0.00000000	    -18.66022155	     -4.43309987	     -5.29927810	     -4.06451708	     13.58572293	      4.88937488	    -18.33129398	     14.36791597	     46.90278323	      0.00000000	     34.32000000
      3.50000000	      1.35534458	     -8.51826888	    -11.60177350	      0.00000000	      0.00000000	      0.00000000	    -18.67527941	     -4.33814413	     -5.39153023	     -3.97332777	     13.51159324	      4.88111936	    -16.12671797	     14.92851218	     40.64794775	      0.00000000	     34.32000000
      3.51000000	      1.37017523	     -8.52500291	    -11.62387659	      0.00000000	      0.00000000	      0.00000000	    -18.66616239	     -4.33534489	     -5.38951399	     -3.96461871	     13.48856340	      4.88456453	    -16.12120300	     14.87326552	     40.66018129	      0.00000000	     34.32000000
      3.52000000	      1.08944889	     -8.43861147	    -11.61055347	      0.00000000	      0.00000000	      0.00000000	    -18.69133002	     -4.59584687	     -5.57345110	     -4.07487856	     13.14300446	      5.05698599	    -15.83414306	     15.09690296	     38.02540443	      0.00000000	     34.32000000
      3.53000000	      1.12369212	     -8.46961469	    -11.62536175	      0.00000000	      0.00000000	      0.00000000	    -18.70299620	     -4.59092548	     -5.58021814	     -4.07837611	     13.16854069	      5.05109369	    -15.82435700	     15.09947422	     38.05355434	      0.00000000	     34.32000000
      3.54000000	      1.36309727	     -8.54166784	    -11.56415141	      0.00000000	      0.00000000	      0.00000000	    -18.69171572	     -4.31543260	     -5.33302421	     -3.99810885	     13.66981115	      4.83662583	    -17.61002786	     14.21717888	     47.19968754	      0.00000000	     34.32000000
      3.55000000	      1.08075861	     -8.36532336	    -11.68723717	      0.00000000	      0.00000000	      0.00000000	    -18.78425323	     -4.84448011	     -5.73887308	     -4.24297603	     13.03874249	      5.17806866	    -15.95584920	     15.40823497	     37.90848515	      0.00000000	     34.32000000
      3.56000000	      1.08126565	     -8.33215864	    -11.69185531	      0.00000000	      0.00000000	      0.00000000	    -18.78040377	     -4.83131060	     -5.71938146	     -4.23982752	     13.06598204	      5.16594361	    -15.96260850	     15.40243903	     37.92839027	      0.00000000	     34.32000000
      3.57000000	      1.11142342	     -8.42876995	    -11.58679944	      0.00000000	      0.00000000	      0.00000000	    -18.64523317	     -4.67647659	     -5.42978442	     -4.15423373	     13.21930993	      5.05596616	    -16.71163385	     15.26045002	     38.64805758	      0.00000000	     34.32000000
      3.58000000	      1.29021191	     -8.43146855	    -11.63933894	      0.00000000	      0.00000000	      0.00000000	    -18.72926706	     -4.41549094	     -5.38588247	     -4.07200533	     13.65173260	      4.87815908	    -17.03800276	     14.80378233	     39.67199964	      0.00000000	     34.32000000
      3.59000000	      1.22910139	     -8.44034634	    -11.66177020	      0.00000000	      0.00000000	      0.00000000	    -18.72343330	     -4.38943327	     -5.38771494	     -4.04899609	     13.64144324	      4.87190073	    -17.01524051	     14.78803801	     39.68750166	      0.00000000	     34.32000000
      3.60000000	      1.30370790	     -8.49339804	    -11.55696082	      0.00000000	      0.00000000	      0.00000000	    -18.74169082	     -4.20721404	     -5.42615128	     -3.92697921	     13.70427100	      4.80259225	    -17.38103493	     14.37191260	     44.51934277	      0.00000000	     34.32000000
      3.61000000	      1.08416973	     -8.30093428	    -11.71858991	      0.00000000	      0.00000000	      0.00000000	    -18.94516646	     -4.58800604	     -5.89399956	     -4.13899485	     13.35907420	      5.04021809	    -16.22961589	     14.92486677	     38.93084256	      0.00000000	     34.32000000
      3.62000000	      1.07699779	     -8.36707689	    -11.70080805	      0.00000000	      0.00000000	      0.00000000	    -18.95133665	     -4.57987426	     -5.89091292	     -4.14027401	     13.38642598	      5.03205076	    -16.22191356	     14.94863373	     38.95746267	      0.00000000	     34.32000000
      3.63000000	      0.91166932	     -8.59616401	    -11.94718331	      0.00000000	      0.00000000	      0.00000000	    -18.79522085	     -4.86474803	     -5.39778270	     -4.41879436	     13.64977566	      5.03325308	    -17.79474499	     14.36786987	     44.65642580	      0.00000000	     34.32000000
      3.64000000	      1.29334028	     -8.56603840	    -11.60921004	      0.00000000	      0.00000000	      0.00000000	    -18.81836104	     -4.16737117	     -5.51868299	     -3.92341804	     13.79185256	      4.78030867	    -17.51193746	     14.13934160	     47.16194610	      0.00000000	     34.32000000
      3.65000000	      1.18932302	     -8.49408965	    -11.63607833	      0.00000000	      0.00000000	      0.00000000	    -18.81712947	     -4.30942675	     -5.61242120	     -3.97417509	     13.57034108	      4.88007068	    -17.10347789	     14.49029648	     44.75500644	      0.00000000	     34.32000000
      3.66000000	      1.12170227	     -8.58610087	    -11.61785913	      0.00000000	      0.00000000	      0.00000000	    -18.68623713	     -4.31180507	     -5.38773353	     -3.96671829	     13.56138091	      4.86212552	    -17.35886620	     14.56874368	     44.24094601	      0.00000000	     34.32000000
      3.67000000	      1.24173656	     -8.60640807	    -11.65835515	      0.00000000	      0.00000000	      0.00000000	    -18.68779175	     -4.21126255	     -5.37058200	     -3.90944285	     13.63620284	      4.81247723	    -16.48093648	     14.97539518	     39.13135851	      0.00000000	     34.32000000
      3.68000000	      1.19734326	     -8.46624003	    -11.58347530	      0.00000000	      0.00000000	      0.00000000	    -18.74637551	     -4.20939318	     -5.54240993	     -3.88042527	     13.51884928	      4.85115590	    -16.78035533	     15.02271165	     39.32117066	      0.00000000	     34.32000000
      3.69000000	      1.30358960	     -8.54823241	    -11.57328454	      0.00000000	      0.00000000	      0.00000000	    -18.66584583	     -4.04677770	     -5.31214002	     -3.80897651	     13.73742500	      4.73315175	    -17.52923612	     14.57598780	     43.77784358	      0.00000000	     34.32000000
      3.70000000	      1.28238173	     -8.55200412	    -11.65059501	      0.00000000	      0.00000000	      0.00000000	    -18.68059015	     -4.18526034	     -5.42195878	     -3.86346171	     13.53769340	      4.82853671	    -16.65130641	     14.97595482	     41.34735119	      0.00000000	     34.32000000
      3.71000000	      1.24904608	     -8.61096054	    -11.68965788	      0.00000000	      0.00000000	      0.00000000	    -18.67171571	     -4.20861979	     -5.37707728	     -3.89136278	     13.57802420	      4.82386483	    -16.68415495	     14.90198928	     41.37283394	      0.00000000	     34.32000000
